<svg width="14" height="13" viewBox="0 0 14 13" fill="none" xmlns="http://www.w3.org/2000/svg">
<path d="M6.42713 2.65118L6.99967 3.32782L7.57221 2.65118C7.86908 2.30034 8.22819 2.02341 8.65685 1.8182C9.0762 1.61745 9.52089 1.51672 9.99967 1.51672C10.8574 1.51672 11.535 1.79608 12.086 2.34705C12.637 2.89802 12.9163 3.57569 12.9163 4.43339C12.9163 5.50655 12.5262 6.50641 11.6881 7.45287C10.7649 8.49556 9.71331 9.54762 8.53186 10.6087L8.53184 10.6087L8.52769 10.6125L7.39436 11.6458L7.39397 11.6462C7.2759 11.754 7.15602 11.8001 6.99967 11.8001C6.84333 11.8001 6.72345 11.754 6.60538 11.6462L5.45599 10.5968C5.45593 10.5967 5.45586 10.5966 5.45579 10.5966C4.29429 9.53368 3.24829 8.48191 2.31679 7.44146C1.47473 6.50092 1.08301 5.50499 1.08301 4.43339C1.08301 3.57569 1.36237 2.89802 1.91334 2.34705C2.46431 1.79608 3.14197 1.51672 3.99967 1.51672C4.47846 1.51672 4.92315 1.61745 5.34249 1.8182C5.77115 2.02341 6.13027 2.30034 6.42713 2.65118Z" stroke="black" stroke-width="1.5"/>
</svg>
